# xmcd
#
# Track frame offsets:
#	150
#	19840
#	41822
#
# Disc length: 1018 seconds
#
# Revision: 0
# Processed by: cddbd v1.5.2PL0 Copyright (c) Steve Scherf et al.
# Submitted via: audiograbber 1.83.01
#
DISCID=1f03f803
DTITLE=Joe Bonamassa - Lie #1 (Promo)
DYEAR=2002
DGENRE=Blues
TTITLE0=Lie #1
TTITLE1=My Mistake
TTITLE2=If Heartaches Were Nickels (Live)
EXTD=
EXTT0=
EXTT1=
EXTT2=
PLAYORDER=
